<?xml version="1.0" standalone="no"?>
<!DOCTYPE svg PUBLIC "-//W3C//DTD SVG 20010904//EN"
 "http://www.w3.org/TR/2001/REC-SVG-20010904/DTD/svg10.dtd">
<svg version="1.0" xmlns="http://www.w3.org/2000/svg"
 width="600.000000pt" height="551.000000pt" viewBox="0 0 600.000000 551.000000"
 preserveAspectRatio="xMidYMid meet">

<g transform="translate(0.000000,551.000000) scale(0.100000,-0.100000)"
fill="#000000" stroke="none">
<path d="M2947 5495 c-87 -22 -156 -109 -157 -197 0 -41 -3 -43 -95 -53 -269
-30 -645 -170 -895 -335 -114 -75 -248 -181 -310 -245 -25 -25 -63 -54 -85
-64 -22 -10 -130 -87 -240 -171 -856 -656 -1113 -938 -1154 -1268 -45 -355
220 -672 1009 -1211 122 -83 141 -100 195 -176 265 -369 666 -664 1088 -801
l87 -28 0 -173 c0 -152 -2 -179 -19 -211 -46 -90 -139 -143 -264 -150 -230
-14 -553 130 -588 263 -18 66 -38 95 -85 125 -93 59 -180 48 -255 -30 -53 -54
-65 -97 -54 -181 18 -128 146 -293 307 -392 151 -95 376 -168 564 -186 327
-30 607 116 740 383 l49 99 3 186 4 186 223 0 224 0 3 -185 3 -185 33 -69 c97
-206 263 -343 482 -397 73 -19 104 -21 230 -16 212 7 395 60 586 167 114 65
239 191 289 292 71 146 56 266 -42 328 -60 38 -103 44 -168 25 -72 -20 -118
-67 -139 -138 -30 -103 -173 -198 -380 -252 -217 -56 -381 -18 -463 107 -28
41 -28 44 -32 225 -2 148 -1 184 10 187 267 91 474 197 679 349 130 97 349
318 450 455 80 109 88 116 229 214 703 487 941 743 980 1056 41 323 -188 639
-837 1156 -237 189 -507 393 -545 412 -17 9 -63 46 -102 82 -320 297 -745 503
-1160 562 -127 18 -125 17 -125 47 0 74 -52 159 -118 192 -52 26 -99 31 -155
16z m289 -1280 c235 -45 435 -148 605 -312 129 -124 235 -288 288 -442 54
-156 65 -227 64 -401 0 -151 -3 -175 -31 -282 -34 -130 -86 -250 -157 -360
-53 -81 -180 -217 -265 -283 -80 -61 -223 -141 -299 -166 -85 -28 -120 -45
-154 -78 -50 -46 -61 -78 -62 -181 l-1 -95 -50 -7 c-65 -8 -259 -10 -318 -2
l-46 7 0 76 c0 108 -14 148 -69 201 -35 35 -63 50 -120 69 -271 86 -535 320
-674 596 -31 63 -81 219 -98 305 -19 99 -16 329 5 430 48 227 146 416 299 577
170 179 377 292 637 347 90 20 347 20 446 1z m-2366 -591 c-50 -172 -65 -306
-65 -564 1 -212 4 -261 23 -364 13 -65 21 -120 20 -122 -8 -7 -210 170 -289
254 -181 190 -192 293 -54 487 42 59 359 375 375 375 5 0 0 -30 -10 -66z
m4459 -128 c313 -307 334 -435 112 -668 -81 -87 -270 -252 -278 -244 -2 2 3
43 12 92 57 329 38 697 -52 999 -8 26 39 -15 206 -179z"/>
<path d="M2910 4079 c-624 -61 -1048 -682 -879 -1290 46 -166 135 -317 263
-445 135 -135 287 -221 474 -271 84 -22 118 -26 247 -26 130 0 163 4 250 27
389 102 670 399 757 801 7 35 12 118 11 200 0 115 -5 157 -26 237 -131 497
-587 817 -1097 767z m325 -333 c112 -38 208 -98 290 -181 133 -136 195 -280
202 -475 6 -139 -10 -218 -67 -335 -117 -242 -339 -389 -606 -402 -137 -7
-234 12 -349 67 -502 241 -546 944 -79 1242 142 91 244 119 414 114 92 -3 131
-9 195 -30z"/>
<path d="M2851 3644 c-193 -52 -363 -214 -421 -402 -118 -380 168 -773 565
-776 176 -1 305 53 430 178 86 87 132 164 160 271 19 76 19 224 0 299 -53 201
-230 378 -431 431 -73 19 -231 19 -303 -1z"/>
<path d="M390 1990 c-99 -18 -180 -113 -180 -211 0 -131 139 -241 264 -208
127 33 199 170 151 287 -40 93 -138 149 -235 132z"/>
<path d="M5540 1990 c-134 -24 -215 -166 -165 -288 37 -87 141 -151 225 -136
171 31 248 225 138 350 -52 59 -126 86 -198 74z"/>
</g>
</svg>
